<?xml version="1.0" encoding="UTF-8" standalone="no"?>
<svg
   xmlns:dc="http://purl.org/dc/elements/1.1/"
   xmlns:cc="http://creativecommons.org/ns#"
   xmlns:rdf="http://www.w3.org/1999/02/22-rdf-syntax-ns#"
   xmlns:svg="http://www.w3.org/2000/svg"
   xmlns="http://www.w3.org/2000/svg"
   xmlns:sodipodi="http://sodipodi.sourceforge.net/DTD/sodipodi-0.dtd"
   xmlns:inkscape="http://www.inkscape.org/namespaces/inkscape"
   width="16px"
   height="18px"
   viewBox="0 0 16 18"
   version="1.1"
   id="svg15"
   sodipodi:docname="feedback.svg"
   inkscape:version="1.0.1 (3bc2e813f5, 2020-09-07)">
  <metadata
     id="metadata19">
    <rdf:RDF>
      <cc:Work
         rdf:about="">
        <dc:format>image/svg+xml</dc:format>
        <dc:type
           rdf:resource="http://purl.org/dc/dcmitype/StillImage" />
        <dc:title>Group 13</dc:title>
      </cc:Work>
    </rdf:RDF>
  </metadata>
  <sodipodi:namedview
     pagecolor="#ffffff"
     bordercolor="#666666"
     borderopacity="1"
     objecttolerance="10"
     gridtolerance="10"
     guidetolerance="10"
     inkscape:pageopacity="0"
     inkscape:pageshadow="2"
     inkscape:window-width="1366"
     inkscape:window-height="745"
     id="namedview17"
     showgrid="false"
     inkscape:zoom="5.6764961"
     inkscape:cx="9.5461663"
     inkscape:cy="19.077329"
     inkscape:window-x="-8"
     inkscape:window-y="-8"
     inkscape:window-maximized="1"
     inkscape:current-layer="g25"
     inkscape:document-rotation="0" />
  <!-- Generator: Sketch 51.2 (57519) - http://www.bohemiancoding.com/sketch -->
  <title
     id="title2">Group 13</title>
  <desc
     id="desc4">Created with Sketch.</desc>
  <defs
     id="defs6" />
  <g
     id="g25"
     transform="matrix(0.13229754,0,0,0.13369851,-0.37720674,0.6823353)">
    <path
       d="M 86.076,40.735 H 69.6 V 22.77 a 5.927,5.927 0 0 0 -11,-3.071 1.708,1.708 0 0 0 -0.082,0.152 l -9.127,19.116 a 15.343,15.343 0 0 0 -1.45,5.838 H 35.632 a 1.75,1.75 0 0 0 -1.75,1.75 v 27.118 a 1.75,1.75 0 0 0 1.75,1.75 h 13.325 a 8.041,8.041 0 0 0 6.982,4.068 h 25.266 a 8.082,8.082 0 0 0 7.86,-6.351 l 4.871,-22.676 a 8.04,8.04 0 0 0 -7.86,-9.729 z M 37.382,71.923 V 48.305 H 47.9 v 23.146 c 0,0.159 0.015,0.315 0.024,0.472 z M 90.514,49.729 85.643,72.405 a 4.563,4.563 0 0 1 -4.438,3.586 H 55.939 a 4.546,4.546 0 0 1 -4.54,-4.54 V 45.55 a 11.847,11.847 0 0 1 1.15,-5.074 L 61.641,21.448 A 2.427,2.427 0 0 1 66.1,22.77 v 19.715 a 1.75,1.75 0 0 0 1.75,1.75 h 18.226 a 4.541,4.541 0 0 1 4.438,5.494 z"
       id="path21"
       style="fill:#008080" />
    <path
       d="M 108.618,4.557 H 19.382 A 14.841,14.841 0 0 0 4.557,19.382 v 61.569 a 14.842,14.842 0 0 0 14.825,14.826 h 17.1 v 25.916 a 1.75,1.75 0 0 0 3.123,1.085 l 21.323,-27 h 47.689 A 14.842,14.842 0 0 0 123.442,80.952 V 19.382 A 14.841,14.841 0 0 0 108.618,4.557 Z m 11.325,76.394 A 11.338,11.338 0 0 1 108.618,92.277 H 60.082 a 1.751,1.751 0 0 0 -1.374,0.665 L 39.983,116.653 V 94.027 a 1.751,1.751 0 0 0 -1.75,-1.75 H 19.382 A 11.338,11.338 0 0 1 8.057,80.951 V 19.382 A 11.337,11.337 0 0 1 19.382,8.057 h 89.236 a 11.337,11.337 0 0 1 11.325,11.325 z"
       id="path23"
       style="fill:#008080" />
  </g>
</svg>
