<?xml version="1.0" encoding="UTF-8" standalone="no"?>
<svg
   xmlns:dc="http://purl.org/dc/elements/1.1/"
   xmlns:cc="http://creativecommons.org/ns#"
   xmlns:rdf="http://www.w3.org/1999/02/22-rdf-syntax-ns#"
   xmlns:svg="http://www.w3.org/2000/svg"
   xmlns="http://www.w3.org/2000/svg"
   xmlns:sodipodi="http://sodipodi.sourceforge.net/DTD/sodipodi-0.dtd"
   xmlns:inkscape="http://www.inkscape.org/namespaces/inkscape"
   width="30px"
   height="31px"
   viewBox="0 0 30 31"
   version="1.1"
   id="svg13"
   sodipodi:docname="icon-logo-white.svg"
   inkscape:version="1.0.1 (3bc2e813f5, 2020-09-07)">
  <metadata
     id="metadata17">
    <rdf:RDF>
      <cc:Work
         rdf:about="">
        <dc:format>image/svg+xml</dc:format>
        <dc:type
           rdf:resource="http://purl.org/dc/dcmitype/StillImage" />
        <dc:title>ico-logo</dc:title>
      </cc:Work>
    </rdf:RDF>
  </metadata>
  <sodipodi:namedview
     pagecolor="#ffffff"
     bordercolor="#666666"
     borderopacity="1"
     objecttolerance="10"
     gridtolerance="10"
     guidetolerance="10"
     inkscape:pageopacity="0"
     inkscape:pageshadow="2"
     inkscape:window-width="762"
     inkscape:window-height="480"
     id="namedview15"
     showgrid="false"
     inkscape:zoom="18.645161"
     inkscape:cx="15"
     inkscape:cy="17.645329"
     inkscape:window-x="0"
     inkscape:window-y="0"
     inkscape:window-maximized="0"
     inkscape:current-layer="ico-logo" />
  <!-- Generator: Sketch 51.1 (57501) - http://www.bohemiancoding.com/sketch -->
  <title
     id="title2">ico-logo</title>
  <desc
     id="desc4">Created with Sketch.</desc>
  <defs
     id="defs6" />
  <g
     id="Page-1"
     stroke="none"
     stroke-width="1"
     fill="none"
     fill-rule="evenodd">
    <g
       id="ico-logo"
       fill="#FFFFFF"
       fill-rule="nonzero">
      <path
         d="M14.7,2 C18.7,2 23.4,2.9 27.4,5 C27.4,9.4 27.5,20.4 14.7,28 C1.9,20.4 2,9.4 2,5 C5.9,2.9 10.7,2 14.7,2 Z M14.7,0 C9.9,0 5,1.2 1.1,3.2 L0,3.8 L0,5 C0,9.5 0,21.5 13.6,29.6 L14.6,30.2 L15.6,29.6 C29.3,21.6 29.3,9.6 29.3,5 L29.3,3.8 L28.2,3.2 C24.3,1.2 19.4,0 14.7,0 Z"
         id="Shape" />
      <path
         d="M14.2,19.3 L21.8,9 C21.2,8.6 20.7,8.9 20.5,9.1 L14.1,15.7 L11.7,12.8 C10.6,11.5 9,12.5 8.6,12.8 L14.2,19.3"
         id="path9"
         style="fill:#008080" />
    </g>
  </g>
</svg>
