<?xml version="1.0" encoding="UTF-8" standalone="no"?>
<svg
   xmlns:dc="http://purl.org/dc/elements/1.1/"
   xmlns:cc="http://creativecommons.org/ns#"
   xmlns:rdf="http://www.w3.org/1999/02/22-rdf-syntax-ns#"
   xmlns:svg="http://www.w3.org/2000/svg"
   xmlns="http://www.w3.org/2000/svg"
   xmlns:sodipodi="http://sodipodi.sourceforge.net/DTD/sodipodi-0.dtd"
   xmlns:inkscape="http://www.inkscape.org/namespaces/inkscape"
   width="14px"
   height="15px"
   viewBox="0 0 14 15"
   version="1.1"
   id="svg15"
   sodipodi:docname="icon-shield.svg"
   inkscape:version="1.0.1 (3bc2e813f5, 2020-09-07)">
  <metadata
     id="metadata19">
    <rdf:RDF>
      <cc:Work
         rdf:about="">
        <dc:format>image/svg+xml</dc:format>
        <dc:type
           rdf:resource="http://purl.org/dc/dcmitype/StillImage" />
        <dc:title>Group 14</dc:title>
      </cc:Work>
    </rdf:RDF>
  </metadata>
  <sodipodi:namedview
     pagecolor="#ffffff"
     bordercolor="#666666"
     borderopacity="1"
     objecttolerance="10"
     gridtolerance="10"
     guidetolerance="10"
     inkscape:pageopacity="0"
     inkscape:pageshadow="2"
     inkscape:window-width="1366"
     inkscape:window-height="745"
     id="namedview17"
     showgrid="false"
     inkscape:zoom="9.6333333"
     inkscape:cx="-2.5431803"
     inkscape:cy="10.519231"
     inkscape:window-x="-8"
     inkscape:window-y="-8"
     inkscape:window-maximized="1"
     inkscape:current-layer="g68" />
  <!-- Generator: Sketch 51.2 (57519) - http://www.bohemiancoding.com/sketch -->
  <title
     id="title2">Group 14</title>
  <desc
     id="desc4">Created with Sketch.</desc>
  <defs
     id="defs6" />
  <g
     id="g68"
     transform="matrix(0.02893324,0,0,0.02662429,0.27094347,1.2465868)">
    <path
       d="M 103.20313,183.35937 H 88.171875 V 399.78125 H 360.70312 V 384.75 H 103.20313 Z m 0,0"
       id="path21"
       style="fill:#008000" />
    <path
       d="m 296.57812,95.1875 h 80.15625 v 88.17187 h 15.03125 V 84.058594 L 307.70703,0 H 120.23438 v 15.03125 h 176.34374 z m 15.03125,-70.03125 55,55 h -55 z m 0,0"
       id="path23"
       style="fill:#008000" />
    <path
       d="m 128.25,312.60937 h 152.29687 v 15.03125 H 128.25 Z m 0,0"
       id="path25"
       style="fill:#008080" />
    <path
       d="M 184.35937,120.23438 H 352.6875 v 15.03124 H 184.35937 Z m 0,0"
       id="path27"
       style="fill:#008080" />
    <path
       d="m 128.25,264.51562 h 152.29687 v 15.03125 H 128.25 Z m 0,0"
       id="path29"
       style="fill:#008080" />
    <path
       d="m 128.25,216.42187 h 176.34375 v 15.03125 H 128.25 Z m 0,0"
       id="path31"
       style="fill:#008080" />
    <path
       d="M 184.35937,168.32812 H 352.6875 v 15.03125 H 184.35937 Z m 0,0"
       id="path33"
       style="fill:#008080" />
    <path
       d="M 176.34375,72.140625 H 192.375 v 15.03125 h -16.03125 z m 0,0"
       id="path35" />
    <path
       d="m 208.40625,72.140625 h 16.03125 v 15.03125 h -16.03125 z m 0,0"
       id="path37" />
    <path
       d="M 240.46875,72.140625 H 256.5 v 15.03125 h -16.03125 z m 0,0"
       id="path39" />
    <path
       d="m 472.17187,287.5625 c 0,-48.34375 -39.20312,-87.67188 -87.54687,-87.67188 -48.33984,0 -87.85938,39.32813 -87.85938,87.67188 0,45.80859 35.88282,83.51953 79.96875,87.34375 v 26.61328 c -9.01562,3.14453 -16.03125,11.95313 -16.03125,22.30859 V 512 h 47.09375 v -88.17188 c 0,-10.35546 -6.01171,-19.16406 -16.03125,-22.30859 v -26.61328 c 45.08594,-3.82422 80.40625,-41.53516 80.40625,-87.34375 z m -160.0625,0 c 0,-40.05469 32.58594,-72.64453 72.64063,-72.64453 40.05859,0 72.64453,32.58984 72.64453,72.64453 0,40.05469 -32.58594,72.64062 -72.64453,72.64062 -40.05469,0 -72.64063,-32.58593 -72.64063,-72.64062 z m 80.65625,209.40625 h -17.03125 v -73.14063 c 0,-4.69531 3.82032,-8.51562 8.51563,-8.51562 4.69531,0 8.51562,3.82031 8.51562,8.51562 z m 0,0"
       id="path41"
       style="fill:#008080" />
    <path
       d="m 440.35937,287.5625 c 0,-30.66406 -24.94531,-55.60938 -55.60937,-55.60938 -30.66016,0 -55.60547,24.94532 -55.60547,55.60938 0,30.66016 24.94531,55.60937 55.60547,55.60937 30.66406,0 55.60937,-24.94921 55.60937,-55.60937 z m -96.1875,0 c 0,-22.375 18.20313,-40.58203 40.57813,-40.58203 22.37891,0 40.58203,18.20703 40.58203,40.58203 0,22.375 -18.20312,40.57812 -40.58203,40.57812 -22.375,0 -40.57813,-18.20312 -40.57813,-40.57812 z m 0,0"
       id="path43"
       style="fill:#008080" />
    <path
       d="m 128.25,150.41016 v 0.88671 h 16.03125 v 16.03125 h 15.03125 v -31.0625 h -24.48047 c 0.60547,-3.0039 0.43359,-6.09375 0.43359,-9.01562 v -8.01562 H 160.3125 V 104.20313 H 135.26562 V 87.171875 h 24.04688 v -32.0625 h -15.03125 v 17.03125 h -9.75391 C 132.12109,64.125 126.14844,59.15625 118.94922,56.914062 117.24219,46.582031 112.21875,37.332031 103.20313,31.335938 V 7.015625 H 88.171875 V 24.480469 C 86.167969,23.875 82.582031,23.546875 79.65625,23.546875 c -2.925781,0 -5.511719,0.328125 -8.515625,0.933594 V 7.015625 H 56.109375 V 31.335938 C 48.09375,37.332031 42.570312,46.578125 40.867188,56.914062 33.664062,59.15625 28.191406,64.125 25.785156,72.140625 H 15.03125 V 55.109375 H 0 v 32.0625 H 24.046875 V 104.20313 H 0 v 15.03125 H 24.046875 V 127.25 c 0,2.92187 0.828125,6.01172 1.433594,9.01562 H 0 v 31.0625 H 15.03125 V 151.29687 H 32.0625 v -0.88671 c 7.195312,9.93359 18.882812,16.91796 32.0625,16.91796 h 32.0625 c 13.17969,0 24.86719,-6.98437 32.0625,-16.91796 z M 120.23438,127.25 c 0,13.53516 -10.51172,25.04687 -24.04688,25.04687 H 87.171875 V 71.140625 h 25.046875 c 4.69531,0 8.01563,3.316406 8.01563,8.015625 z M 103.52344,56.109375 H 56.789062 c 3.183594,-10.019531 12.453126,-17.03125 23.367188,-17.03125 10.914062,0 20.1875,7.011719 23.36719,17.03125 z M 39.078125,127.25 V 79.15625 c 0,-4.699219 4.320313,-8.015625 9.015625,-8.015625 H 72.140625 V 152.29687 H 64.125 c -13.535156,0 -25.046875,-11.51171 -25.046875,-25.04687 z m 0,0"
       id="path45"
       style="fill:#008080" />
  </g>
</svg>
