<?xml version="1.0" encoding="UTF-8" standalone="no"?>
<svg
   xmlns:dc="http://purl.org/dc/elements/1.1/"
   xmlns:cc="http://creativecommons.org/ns#"
   xmlns:rdf="http://www.w3.org/1999/02/22-rdf-syntax-ns#"
   xmlns:svg="http://www.w3.org/2000/svg"
   xmlns="http://www.w3.org/2000/svg"
   xmlns:sodipodi="http://sodipodi.sourceforge.net/DTD/sodipodi-0.dtd"
   xmlns:inkscape="http://www.inkscape.org/namespaces/inkscape"
   viewBox="0 0 118 26"
   version="1.1"
   id="svg10"
   sodipodi:docname="logo.svg"
   inkscape:version="1.0.1 (3bc2e813f5, 2020-09-07)">
  <metadata
     id="metadata16">
    <rdf:RDF>
      <cc:Work
         rdf:about="">
        <dc:format>image/svg+xml</dc:format>
        <dc:type
           rdf:resource="http://purl.org/dc/dcmitype/StillImage" />
        <dc:title></dc:title>
      </cc:Work>
    </rdf:RDF>
  </metadata>
  <defs
     id="defs14" />
  <sodipodi:namedview
     pagecolor="#ffffff"
     bordercolor="#666666"
     borderopacity="1"
     objecttolerance="10"
     gridtolerance="10"
     guidetolerance="10"
     inkscape:pageopacity="0"
     inkscape:pageshadow="2"
     inkscape:window-width="1366"
     inkscape:window-height="745"
     id="namedview12"
     showgrid="false"
     inkscape:zoom="2.2076271"
     inkscape:cx="98.688885"
     inkscape:cy="-37.334327"
     inkscape:window-x="-8"
     inkscape:window-y="-8"
     inkscape:window-maximized="1"
     inkscape:current-layer="svg10"
     inkscape:document-rotation="0" />
  <path
     fill="#232323"
     d="m 89.024443,17.861025 -0.897,-2.259 h -4.47 l -0.849,2.259 h -3.034 l 4.845,-11.505 h 2.708 l 4.796,11.505 h -3.1 z m -3.1,-8.434 -1.468,3.949 h 2.904 z m -6.607,4.095 c 0,0.693 -0.117,1.324 -0.35,1.893 -0.224294,0.554876 -0.566925,1.054148 -1.004,1.463 -0.455889,0.418697 -0.991105,0.741731 -1.574,0.95 -0.614,0.228 -1.297,0.341 -2.047,0.341 -0.761,0 -1.447,-0.113 -2.056,-0.34 -0.576396,-0.207394 -1.103988,-0.531098 -1.55,-0.951 -0.427415,-0.411662 -0.761001,-0.910677 -0.978,-1.463 -0.234868,-0.60311 -0.351324,-1.245826 -0.343,-1.893 v -7.166 h 2.774 v 6.939 c 0,0.314 0.041,0.612 0.123,0.893 0.081,0.282 0.206,0.534 0.375,0.756 0.169,0.222 0.392,0.398 0.669,0.528 0.277,0.13 0.612,0.195 1.003,0.195 0.392,0 0.726,-0.065 1.003,-0.195 0.264344,-0.119825 0.496396,-0.300805 0.677,-0.528 0.175224,-0.223945 0.303142,-0.481143 0.376,-0.756 0.076,-0.281 0.114,-0.58 0.114,-0.893 v -6.94 h 2.79 v 7.167 z m -11.446,3.64 c -0.630017,0.31599 -1.295347,0.556006 -1.982,0.715 -0.810041,0.190277 -1.639941,0.282935 -2.472,0.276 -0.924,0 -1.775,-0.146 -2.553,-0.439 -0.744947,-0.272511 -1.427234,-0.692563 -2.006,-1.235 -0.565647,-0.538324 -1.013126,-1.188428 -1.314,-1.909 -0.315,-0.742 -0.473,-1.568 -0.473,-2.478 0,-0.92 0.16,-1.755 0.482,-2.502 0.303806,-0.7232645 0.757044,-1.3741541 1.33,-1.91 0.576233,-0.5317014 1.252777,-0.9430671 1.99,-1.21 0.789226,-0.2866736 1.62335,-0.4299276 2.463,-0.423 0.913,0 1.762,0.138 2.545,0.414 0.783,0.277 1.419,0.648 1.908,1.114 l -1.762,1.998 c -0.297797,-0.3330331 -0.665121,-0.5965779 -1.076,-0.772 -0.446,-0.2 -0.952,-0.3 -1.517,-0.3 -0.49,0 -0.941,0.09 -1.354,0.268 -0.91303,0.3889616 -1.370955,1.114582 -1.787,1.885 -0.172354,0.459612 -0.258133,0.947161 -0.253,1.438 0,0.53 0.077,1.018 0.229,1.463 0.152,0.444 0.378,0.826 0.677,1.145 0.299,0.32 0.669,0.569 1.11,0.748 0.44,0.178 0.943,0.268 1.508,0.268 0.326,0 0.636,-0.025 0.93,-0.073 0.294,-0.05 0.566,-0.128 0.816,-0.236 v -2.096 h -2.203 v -2.244 h 4.764 v 6.094 z m 46.106997,-5.086 c 0,1.007 -0.188,1.877 -0.563,2.608 -0.35326,0.704924 -0.86042,1.321447 -1.484,1.804 -0.62152,0.474777 -1.32727,0.827651 -2.08,1.04 -0.76379,0.220891 -1.55491,0.332994 -2.35,0.333 h -4.306 v -11.505 h 4.176 c 0.816,0 1.62,0.095 2.414,0.284 0.794,0.19 1.501,0.504 2.121,0.943 0.62,0.438 1.12,1.026 1.5,1.763 0.382,0.736 0.572,1.646 0.572,2.73 z m -2.904,0 c 0,-0.65 -0.106,-1.19 -0.318,-1.617 -0.19375,-0.406135 -0.48509,-0.7579475 -0.848,-1.024 -0.3631,-0.2587893 -0.77356,-0.4436311 -1.208,-0.544 -0.45662,-0.109092 -0.92453,-0.1638053 -1.394,-0.163 h -1.387 v 6.728 h 1.321 c 0.5,0 0.982,-0.057 1.444,-0.17 0.462,-0.115 0.87,-0.301 1.224,-0.562 0.36335,-0.272221 0.6545,-0.629289 0.848,-1.04 0.212,-0.433 0.318,-0.97 0.318,-1.608 z m -55.225997,0 c 0,1.007 -0.188,1.877 -0.563,2.608 -0.353259,0.704924 -0.860421,1.321447 -1.484,1.804 -0.621518,0.474777 -1.327268,0.827651 -2.08,1.04 -0.763791,0.220891 -1.55491,0.332994 -2.35,0.333 h -4.306 v -11.505 h 4.176 c 0.816,0 1.62,0.095 2.414,0.284 0.794,0.19 1.501,0.504 2.121,0.943 0.62,0.438 1.12,1.026 1.5,1.763 0.382,0.736 0.572,1.646 0.572,2.73 z m -2.904,0 c 0,-0.65 -0.106,-1.19 -0.318,-1.617 -0.193749,-0.406135 -0.485094,-0.7579475 -0.848,-1.024 -0.362801,-0.2586707 -0.772908,-0.4435076 -1.207,-0.544 -0.456942,-0.1091704 -0.925198,-0.1638841 -1.395,-0.163 h -1.387 v 6.728 h 1.321 c 0.5,0 0.982,-0.057 1.444,-0.17 0.462,-0.115 0.87,-0.301 1.224,-0.562 0.363349,-0.272221 0.654497,-0.629289 0.848,-1.04 0.212,-0.433 0.318,-0.97 0.318,-1.608 z m -11.86,5.785 -0.897,-2.259 h -4.47 l -0.848,2.259 h -3.034 l 4.844,-11.505 h 2.708 l 4.796,11.505 h -3.1 z m -3.1,-8.434 -1.467,3.949 h 2.903 l -1.435,-3.949 z m 61.203,8.434 -2.496,-4.566 h -0.946 v 4.566 h -2.74 v -11.505 h 4.404 c 0.555,0 1.096,0.057 1.623,0.17 0.528,0.114 0.999997,0.306 1.419997,0.577 0.418,0.271 0.752,0.629 1.003,1.073 0.25,0.444 0.375,0.996 0.375,1.657 0,0.78 -0.212,1.436 -0.636,1.966 -0.425,0.531 -1.012,0.91 -1.761997,1.138 l 3.017997,4.924 z m -0.114,-7.979 c 0,-0.27 -0.057,-0.49 -0.171,-0.658 -0.111145,-0.1652753 -0.262577,-0.299499 -0.44,-0.39 -0.189609,-0.095301 -0.393712,-0.158492 -0.604,-0.187 -0.213534,-0.031892 -0.429099,-0.048268 -0.645,-0.049 h -1.484 v 2.681 h 1.321 c 0.228,0 0.462,-0.018 0.701,-0.056 0.24,-0.038 0.457,-0.106 0.653,-0.204 0.196,-0.097 0.356,-0.238 0.481,-0.422 0.125,-0.184 0.188,-0.422 0.188,-0.715 z"
     id="path2"
     sodipodi:nodetypes="ccccccccccccccccccsccccccscssscccsccccccccccsccccccccsccccccsccccccccsccccccscccssccccccscccssccccccscccssccccccscccscccccccccccccccccccccscccsccccsccccccsccss"
     style="fill:#000000;fill-opacity:0" />
  <text
     xml:space="preserve"
     style="font-style:normal;font-variant:normal;font-weight:bold;font-stretch:normal;font-size:12px;line-height:0;font-family:'HoloLens MDL2 Assets';-inkscape-font-specification:'HoloLens MDL2 Assets Bold';fill:#67b279;fill-opacity:1;stroke:none"
     x="9.0595016"
     y="16.080614"
     id="text20"><tspan
       id="tspan18"
       x="9.0595016"
       y="16.080614"
       style="font-style:normal;font-variant:normal;font-weight:bold;font-stretch:normal;font-size:12px;font-family:Cambria;-inkscape-font-specification:'Cambria Bold';fill:#008000;fill-opacity:1"
       sodipodi:role="line">BroxMe AdBlocker</tspan></text>
</svg>
